<?xml version="1.0" encoding="UTF-8" standalone="no"?>
<svg
   xmlns:dc="http://purl.org/dc/elements/1.1/"
   xmlns:cc="http://creativecommons.org/ns#"
   xmlns:rdf="http://www.w3.org/1999/02/22-rdf-syntax-ns#"
   xmlns:svg="http://www.w3.org/2000/svg"
   xmlns="http://www.w3.org/2000/svg"
   xmlns:xlink="http://www.w3.org/1999/xlink"
   viewBox="0 0 1248 1274.24"
   height="1274.24"
   width="1248"
   id="svg2"
   version="1.1">
  <defs
     id="defs6">
    <linearGradient
       id="circleGradient">
      <stop
         id="centre"
         offset="0"
         style="stop-color:#99a3ac;stop-opacity:1" />
      <stop
         id="outside"
         offset="1"
         style="stop-color:#99a3ac;stop-opacity:0;" />
    </linearGradient>
    <radialGradient
       gradientUnits="userSpaceOnUse"
       gradientTransform="matrix(0.60910325,-0.95905051,0.97541224,0.61949348,-123.43579,1219.4301)"
       r="127.64408"
       fy="548.83374"
       fx="1053.7396"
       cy="548.83374"
       cx="1053.7396"
       id="radialGradient874"
       xlink:href="#circleGradient" />
  </defs>
  <path
     style="fill:#99a3ac;stroke-width:0.31999999"
     d="m 1092.7539,1205.8266 c -15.9218,-1.1156 -30.2765,-3.4291 -46.4991,-7.4943 -79.01756,-19.8006 -155.00239,-69.8559 -218.31074,-143.813 -49.92218,-58.31931 -92.35779,-131.0492 -126.86938,-217.43998 -2.42566,-6.072 -4.50787,-11.364 -4.62713,-11.76 -0.26026,-0.86419 -0.62173,-0.87696 -11.2137,-0.39638 -27.82611,1.26256 -62.19818,3.868 -82.95754,6.28835 l -1.67753,0.19555 -2.45933,4.03626 c -9.88256,16.21907 -22.38413,33.98528 -35.15267,49.95622 -16.76365,20.96797 -37.39031,42.31734 -57.9664,59.99738 -51.06323,43.87609 -112.46733,75.2642 -180.57036,92.3028 -36.29293,9.0801 -72.58781,14.0978 -113.77617,15.7295 -10.63263,0.4211 -47.49808,0.2105 -56.64,-0.3237 -14.28058,-0.8345 -27.18092,-1.798 -36.8,-2.7486 -8.69879,-0.8596 -17.271929,-1.8122 -17.759996,-1.9733 -0.264,-0.087 2.039996,-0.9904 5.119996,-2.0072 32.22235,-10.6375 73.72213,-30.9672 111.2,-54.47406 C 283.13039,949.66732 346.46349,894.10716 402.85491,827.79932 463.2919,756.73449 516.14636,672.40601 559.01017,578.65596 620.8334,443.43862 663.36595,287.47965 686.37321,111.63932 c 1.58349,-12.102443 4.49037,-36.282808 5.45261,-45.356952 0.39645,-3.738323 0.76845,-6.749296 0.82669,-6.691046 0.0583,0.05825 0.24748,4.91688 0.42048,10.796954 1.83228,62.271074 7.00697,135.293414 14.579,205.731044 13.10688,121.92458 32.81367,237.04909 58.73808,343.14051 l 2.01853,8.26048 2.05968,-4.10048 c 5.06723,-10.08822 13.23098,-28.42835 18.34848,-41.22051 28.85063,-72.11763 45.24659,-151.8945 49.52282,-240.96 1.06889,-22.26285 1.23561,-62.11164 0.34611,-82.72 -0.73318,-16.98663 -2.54483,-47.03376 -3.00502,-49.84 -0.20263,-1.23572 0.51033,-0.80918 3.00969,1.80056 19.05514,19.89668 37.29258,66.44218 49.54141,126.43944 11.26816,55.19357 17.83677,117.74269 21.00304,200 1.29002,33.51328 1.60944,90.22435 0.76154,135.2 l -0.0543,2.88 7.16592,1.80275 c 42.43338,10.67517 96.89003,34.59776 147.64593,64.86029 50.3797,30.03818 99.9802,67.33091 146.6984,110.29696 9.9612,9.16118 31.2006,29.56765 30.9918,29.77645 -0.051,0.0511 -1.2443,-0.18291 -2.6516,-0.52016 -23.9109,-5.73008 -63.3593,-13.79239 -99.3586,-20.3065 -94.2383,-17.05254 -190.04916,-28.75261 -278.88004,-34.05581 -14.99094,-0.89494 -31.53882,-1.70185 -31.69517,-1.54547 -0.16361,0.16359 6.81936,18.09811 11.68275,30.00499 46.04836,112.73895 101.17181,203.59308 164.83756,271.68438 27.1713,29.06 58.5522,56.1512 87.4311,75.4794 2.3822,1.5944 4.4236,3.0482 4.5364,3.2308 0.1988,0.3216 -2.0266,0.3691 -5.5926,0.1192 z M 617.87385,809.60799 c 16.7697,-12.09664 33.99974,-26.7431 49.1775,-41.80355 l 6.77751,-6.72512 -1.59274,-4.96 c -3.80864,-11.86074 -11.65833,-38.60682 -15.48176,-52.75069 l -0.89497,-3.31065 -1.38314,5.46988 c -7.9831,31.5704 -23.61408,70.83114 -41.20742,103.50164 -1.69124,3.1406 -3.07498,5.77552 -3.07498,5.85539 0,0.19241 2.06157,-1.22407 7.68,-5.2769 z M 1051.6339,680.09206 c -0.528,-0.071 -2.544,-0.28615 -4.48,-0.47799 -8.8403,-0.87606 -18.0558,-2.9104 -27.36,-6.03971 -38.14239,-12.82851 -67.82658,-42.5127 -80.65509,-80.65504 -3.00394,-8.93139 -4.66982,-16.22394 -5.95763,-26.08 -0.83891,-6.42048 -0.83891,-23.65952 0,-30.08 1.28781,-9.85606 2.95369,-17.14861 5.95763,-26.08 12.82851,-38.14234 42.5127,-67.82653 80.65509,-80.65504 8.9313,-3.00394 16.2239,-4.66982 26.08,-5.95763 6.4205,-0.83891 23.6595,-0.83891 30.08,0 9.8561,1.28781 17.1486,2.95369 26.08,5.95763 31.6287,10.63776 57.7574,33.0343 73.0023,62.57504 7.1816,13.91603 11.4815,27.86742 13.6104,44.16 0.8389,6.42048 0.8389,23.65952 0,30.08 -1.2878,9.85606 -2.9537,17.14861 -5.9577,26.08 -12.8285,38.14234 -42.5127,67.82653 -80.655,80.65504 -8.6794,2.91917 -15.4762,4.50442 -24.8,5.78426 -3.7785,0.51865 -6.9111,0.68057 -14.72,0.76076 -5.456,0.056 -10.352,0.0438 -10.88,-0.0272 z"
     id="grayWings" />
  <g
     style="fill:#102e6b;fill-opacity:1"
     id="g850">
    <path
       id="path14"
       d="m 1091.1539,1205.5125 c -0.616,-0.058 -2.92,-0.2626 -5.12,-0.456 -30.1848,-2.6521 -66.0275,-12.7067 -99.59013,-27.937 -73.1616,-33.1999 -139.79069,-91.3509 -195.28957,-170.4402 -34.3144,-48.90011 -64.05245,-105.10036 -90.25085,-170.55998 l -4.54652,-11.36 1.63849,-0.21536 c 6.1648,-0.81034 70.27363,-1.21446 93.95853,-0.59232 18.0209,0.47338 33.2271,1.00291 35.49936,1.23622 l 2.05936,0.21146 1.09926,2.88 c 21.59498,56.57642 48.18644,113.40806 74.71405,159.68 54.16471,94.47908 117.19442,166.34818 188.14802,214.53438 2.42,1.6435 4.4,3.0416 4.4,3.1069 0,0.1354 -5.0297,0.07 -6.72,-0.088 z M 169.37069,1053.3952 c -20.91837,-0.5922 -50.178,-2.7136 -66.78911,-4.8424 l -2.812276,-0.3604 5.532276,-1.8361 c 18.81292,-6.2439 42.16459,-16.3707 64.57227,-28.0027 91.52317,-47.51015 178.30041,-120.93713 251.67296,-212.95428 91.29226,-114.4904 161.65859,-256.31974 209.56691,-422.4 27.57498,-95.59209 47.57946,-198.56734 60.14445,-309.599998 l 1.37606,-12.16 0.23207,9.12 c 0.796,31.286658 3.30681,77.507798 6.30137,115.999998 11.89066,152.84454 34.10788,297.10154 66.08733,429.10678 l 3.02019,12.46676 -4.11702,7.85324 c -20.30406,38.72992 -43.4729,72.8474 -70.74304,104.17322 -6.03952,6.93776 -19.20026,21.08768 -19.41437,20.8736 -0.62809,-0.62813 -12.88886,-41.97318 -16.62848,-56.0736 -0.65347,-2.464 -1.29056,-4.67584 -1.41571,-4.9152 -0.13091,-0.2504 -0.53574,0.90464 -0.95331,2.72 -4.79927,20.86413 -16.22013,52.71197 -28.32829,78.9952 -4.54275,9.86093 -14.56346,29.64829 -16.96112,33.49216 -0.7825,1.25446 -18.88925,12.55827 -26.8,16.73088 -2.244,1.18362 -4.08,2.18083 -4.08,2.216 0,0.0352 4.67827,-0.50698 10.39616,-1.20474 5.71789,-0.69776 10.48714,-1.17766 10.59834,-1.06649 0.27699,0.27699 -3.73383,6.82512 -10.01975,16.35846 -14.75808,22.38231 -27.42627,38.75671 -45.82659,59.23373 -5.56691,6.1952 -22.40326,23.04339 -28.98816,29.00851 -38.04979,34.46855 -79.69629,60.8249 -126.8055,80.24997 -48.78192,20.1148 -103.54093,32.2207 -162.1545,35.8485 -16.38424,1.0141 -40.50224,1.4265 -56.66316,0.9689 z M 1053.5547,679.92876 c -31.2414,-1.78352 -61.14338,-15.20621 -83.35375,-37.41654 -38.53158,-38.53162 -48.54268,-97.19184 -24.9486,-146.18685 12.75136,-26.47923 33.70832,-47.43619 60.18755,-60.18755 35.0772,-16.89181 75.8707,-16.89181 110.948,0 26.4792,12.75136 47.4361,33.70832 60.1875,60.18755 16.8918,35.07721 16.8918,75.87069 0,110.9479 -16.7384,34.75866 -47.8163,59.98349 -85.1948,69.14976 -8.3067,2.03703 -14.948,3.01703 -23.9067,3.52775 -6.1827,0.35248 -7.3928,0.35056 -13.9192,-0.0221 z"
       style="fill:#102e6b;stroke-width:0.31999999;fill-opacity:1" />
  </g>
  <path
     id="circleGradient"
     d="m 1043.9188,678.49243 c -55.32792,-8.5364 -97.20358,-48.39509 -108.28131,-103.06594 -5.61017,-27.68734 -0.88603,-58.20349 13.15961,-85.00603 8.71501,-16.63038 34.82505,-42.24171 52.2286,-51.23101 64.6464,-33.39124 143.0902,-7.74696 174.2297,56.95786 18.0683,37.54421 17.8166,75.22924 -0.7522,112.62797 -20.6979,41.68703 -58.87,66.94621 -106.2177,70.28624 -7.8046,0.55056 -18.7696,0.29448 -24.3667,-0.56909 z"
     style="fill:url(#radialGradient874);fill-opacity:1;stroke:none;stroke-width:1.90894854;stroke-opacity:1" />
</svg>
